<?xml version="1.0" standalone="no"?>
<!DOCTYPE svg PUBLIC "-//W3C//DTD SVG 20010904//EN"
 "http://www.w3.org/TR/2001/REC-SVG-20010904/DTD/svg10.dtd">
<svg version="1.0" xmlns="http://www.w3.org/2000/svg"
 width="700.000000pt" height="700.000000pt" viewBox="0 0 700.000000 700.000000"
 preserveAspectRatio="xMidYMid meet">
<metadata>
Created by potrace 1.11, written by Peter Selinger 2001-2013
</metadata>
<g transform="translate(0.000000,700.000000) scale(0.100000,-0.100000)"
fill="#000000" stroke="none">
<path d="M3395 6986 c-105 -33 -183 -99 -241 -202 -33 -59 -78 -175 -88 -225
-2 -13 -8 -42 -13 -64 -13 -55 -15 -176 -17 -937 l-1 -656 -130 -47 c-238 -84
-319 -113 -465 -166 -80 -28 -176 -62 -215 -75 -38 -14 -79 -28 -90 -33 -11
-5 -74 -28 -140 -51 -66 -23 -174 -61 -240 -85 -152 -55 -209 -75 -660 -235
-203 -72 -392 -140 -420 -150 -27 -11 -88 -33 -135 -49 -109 -38 -500 -177
-521 -186 -15 -6 -17 -44 -17 -397 l0 -390 57 6 c56 6 93 12 141 21 14 3 43 8
65 10 22 3 65 10 95 15 30 5 75 12 100 15 25 3 56 8 70 10 14 2 57 9 95 15
114 18 129 20 155 25 14 3 48 7 75 10 28 4 57 8 65 10 8 2 35 7 60 10 25 3 70
10 100 15 30 5 73 12 95 15 22 3 99 15 170 26 72 11 144 22 160 25 17 2 41 6
55 9 14 2 43 7 65 10 22 3 83 12 135 21 52 8 115 17 140 20 25 3 52 7 60 9 8
2 38 7 65 10 28 4 57 8 65 10 8 2 35 7 60 10 52 7 84 12 160 25 30 5 75 12
100 15 25 4 86 13 135 20 50 8 108 17 130 20 22 4 51 8 64 10 13 2 45 7 70 11
25 3 57 8 71 10 14 2 45 6 70 10 25 3 53 8 63 10 10 3 18 0 18 -8 1 -7 3 -22
4 -33 1 -11 5 -69 9 -130 4 -60 9 -130 11 -155 2 -25 7 -90 10 -145 3 -55 7
-122 9 -150 3 -27 7 -97 11 -155 4 -58 8 -127 11 -155 2 -27 6 -93 9 -145 3
-52 8 -120 10 -150 2 -30 7 -100 10 -155 3 -55 8 -120 10 -145 2 -25 6 -88 9
-140 4 -52 9 -129 11 -170 3 -41 7 -104 10 -140 2 -36 7 -106 10 -155 l6 -91
-123 -75 c-68 -42 -312 -192 -543 -334 -702 -431 -645 -393 -646 -429 0 -17
-1 -121 -2 -231 -1 -193 -1 -200 18 -198 35 2 94 14 310 59 27 5 32 6 310 60
132 25 249 48 260 50 11 2 43 8 71 14 28 6 64 13 80 16 16 2 99 18 184 35 85
16 166 32 180 34 14 2 66 13 116 23 106 22 96 23 295 -17 85 -16 168 -32 184
-35 17 -3 109 -21 205 -40 96 -19 186 -37 200 -40 14 -2 111 -21 215 -41 105
-20 201 -39 215 -42 14 -2 57 -10 95 -18 39 -8 84 -17 100 -19 17 -3 72 -14
124 -25 52 -11 97 -18 101 -16 7 5 4 450 -3 462 -3 5 -65 45 -137 88 -72 44
-150 92 -173 108 -23 15 -54 33 -69 39 -16 7 -28 16 -28 20 0 4 -4 8 -9 8 -9
0 -56 29 -226 135 -27 17 -189 116 -358 220 l-308 189 6 75 c3 42 7 119 10
171 3 52 7 120 10 150 2 30 7 93 10 140 3 47 8 119 10 160 3 41 7 109 10 150
3 41 7 111 10 155 3 44 7 114 10 155 3 41 7 107 10 145 6 85 12 168 20 300 3
55 8 125 10 155 3 30 7 91 10 135 5 76 12 188 20 283 1 24 4 45 6 46 2 2 29 0
59 -4 60 -9 249 -38 290 -45 14 -2 45 -7 70 -10 56 -7 285 -42 365 -55 33 -6
76 -12 95 -15 19 -3 46 -7 60 -10 14 -2 45 -7 70 -10 85 -12 115 -16 130 -20
8 -2 35 -7 60 -10 25 -3 72 -10 105 -15 33 -5 78 -12 100 -15 22 -4 47 -8 55
-10 8 -2 38 -7 65 -10 54 -7 157 -22 190 -29 11 -2 43 -7 70 -10 28 -4 75 -11
105 -16 30 -5 116 -19 190 -30 137 -20 174 -26 233 -35 17 -3 50 -8 72 -11 22
-3 63 -9 90 -15 28 -5 70 -11 95 -14 48 -6 333 -50 411 -64 l47 -8 0 393 0
393 -38 15 c-59 24 -1337 516 -1405 541 -58 22 -1284 493 -1455 560 -47 18
-95 36 -107 39 -17 6 -23 15 -24 39 0 18 -2 284 -4 592 -4 789 -5 828 -21 902
-66 318 -209 480 -429 488 -46 2 -97 -2 -120 -9z"/>
</g>
</svg>
